<svg xmlns="http://www.w3.org/2000/svg" width="800" height="400" viewBox="0 0 800 400">
<style>
  .place { fill: white; stroke: black; stroke-width: 1.5; }
  .transition { fill: white; stroke: black; stroke-width: 1.5; }
  .region { fill: none; stroke: black; stroke-width: 2; rx: 10; }
  .arc { fill: none; stroke: black; stroke-width: 1; marker-end: url(#doubleArrowhead); }
  .arc-white { fill: none; stroke: black; stroke-width: 1; marker-end: url(#doubleArrowheadWhite); }
  .label { font-family: Arial; font-size: 12px; text-anchor: middle; dominant-baseline: middle; }
</style>
<defs>
  <marker id="doubleArrowhead" markerWidth="15" markerHeight="7" refX="14" refY="3.5" orient="auto">
    <polygon points="0 0, 7 3.5, 0 7" fill="black" />
    <polygon points="7 0, 14 3.5, 7 7" fill="black" />
  </marker>
  <marker id="doubleArrowheadWhite" markerWidth="15" markerHeight="7" refX="14" refY="3.5" orient="auto">
    <polygon points="0 0, 7 3.5, 0 7" fill="white" stroke="black" stroke-width="1" />
    <polygon points="7 0, 14 3.5, 7 7" fill="white" stroke="black" stroke-width="1" />
  </marker>
</defs>
<rect x="50" y="50" width="500" height="180" rx="10" style="fill: none; stroke: black; stroke-width: 2; " />
<text x="300.0" y="45" class="label" style="font-size: 10px;">L1</text>
<rect x="200.0" y="100.0" width="200" height="80" rx="10" style="fill: none; stroke: black; stroke-width: 2; " />
<text x="300.0" y="95.0" class="label" style="font-size: 10px;">T1</text>
<path d="M70.0,140.0 L105.0,140.0" class="arc-white" />
<path d="M285.0,60.0 Q200.0,60.0 200.0,120.0" class="arc" />
<path d="M320.0,140.0 L380.0,140.0" class="arc" />
<path d="M145.0,140.0 L180.0,140.0" class="arc" />
<path d="M420.0,140.0 L455.0,140.0" class="arc-white" />
<path d="M220.0,140.0 L280.0,140.0" class="arc-white" />
<path d="M495.0,140.0 L530.0,140.0" class="arc" />
<path d="M400.0,120.0 Q400.0,60.0 315.0,60.0" class="arc-white" />
<circle cx="200.0" cy="140.0" r="20" class="place" />
<polygon points="188.0,128.0 212.0,140.0 188.0,152.0" style="fill: none; stroke: black; stroke-width: 1.5" />
<text x="225.0" y="165.0" class="label" style="font-style: italic; font-size: 14px">1</text>
<circle cx="50" cy="140.0" r="20" class="place" />
<polygon points="38,128.0 62,140.0 38,152.0" style="fill: none; stroke: black; stroke-width: 1.5" />
<text x="75" y="165.0" class="label" style="font-style: italic; font-size: 14px">2</text>
<circle cx="400.0" cy="140.0" r="20" class="place" />
<polygon points="388.0,128.0 412.0,140.0 388.0,152.0" style="fill: none; stroke: black; stroke-width: 1.5" />
<text x="425.0" y="165.0" class="label" style="font-style: italic; font-size: 14px">2</text>
<circle cx="550" cy="140.0" r="20" class="place" />
<polygon points="538,128.0 562,140.0 538,152.0" style="fill: black; stroke: black" />
<text x="575" y="165.0" class="label" style="font-style: italic; font-size: 14px">2</text>
<polygon points="285.0,125.0 315.0,140.0 285.0,155.0" style="fill: none; stroke: black; stroke-width: 2" />
<text x="240.0" y="115.0" class="label" style="font-size: 10px; font-style: italic">I</text>
<line x1="237.0" y1="105.0" x2="245.0" y2="105.0" style="stroke: black; stroke-width: 0.8" />
<polygon points="245.0,105.0 242.0,103.0 242.0,107.0" style="fill: black" />
<text x="253.0" y="115.0" class="label" style="font-size: 10px">(</text>
<circle cx="262.0" cy="112.0" r="5" style="fill: none; stroke: black; stroke-width: 1" /><polygon points="258.5,108.5 265.5,112.0 258.5,115.5" style="fill: none; stroke: black; stroke-width: 0.8" />
<text x="270.0" y="117.0" class="label" style="font-size: 7px; font-style: italic">1</text>
<text x="290.0" y="115.0" class="label" style="font-size: 10px">) = [1.5]</text>
<text x="247.0" y="170.0" class="label" style="font-size: 10px">🕐(</text>
<circle cx="262.0" cy="167.0" r="5" style="fill: none; stroke: black; stroke-width: 1" /><polygon points="258.5,163.5 265.5,167.0 258.5,170.5" style="fill: none; stroke: black; stroke-width: 0.8" />
<text x="270.0" y="172.0" class="label" style="font-size: 7px; font-style: italic">1</text>
<text x="290.0" y="170.0" class="label" style="font-size: 10px">) = 2.0</text>
<polygon points="110.0,125.0 140.0,140.0 110.0,155.0" style="fill: black; stroke: black" />
<text x="125.0" y="140.0" class="label">Entry L1</text>
<polygon points="285.0,45.0 315.0,60.0 285.0,75.0" style="fill: none; stroke: black; stroke-width: 2" />
<text x="300.0" y="42.0" class="label" style="font-size: 11px; fill: black; text-anchor: middle;">0.8</text>
<text x="300.0" y="60.0" class="label">Loop L1</text>
<polygon points="460.0,125.0 490.0,140.0 460.0,155.0" style="fill: none; stroke: black; stroke-width: 2" />
<text x="475.0" y="122.0" class="label" style="font-size: 11px; fill: black; text-anchor: middle;">0.19999999999999996</text>
<text x="475.0" y="140.0" class="label">Exit L1</text>
</svg>