<svg xmlns="http://www.w3.org/2000/svg" width="1250" height="500" viewBox="0 0 1250 500">
<style>
  .place { fill: white; stroke: black; stroke-width: 1.5; }
  .transition { fill: white; stroke: black; stroke-width: 1.5; }
  .region { fill: none; stroke: black; stroke-width: 2; rx: 10; }
  .arc { fill: none; stroke: black; stroke-width: 1; marker-end: url(#arrowhead); }
  .label { font-family: Arial; font-size: 12px; text-anchor: middle; dominant-baseline: middle; }
</style>
<defs>
  <marker id="arrowhead" markerWidth="10" markerHeight="7" refX="9" refY="3.5" orient="auto">
    <polygon points="0 0, 10 3.5, 0 7" fill="black" />
  </marker>
</defs>
<rect x="200" y="100" width="200" height="80" rx="10" class="region"  />
<text x="300.0" y="95" class="label" style="font-size: 10px;">R1</text>
<rect x="200" y="240" width="800" height="180" rx="10" class="region"  />
<text x="600.0" y="235" class="label" style="font-size: 10px;">&lt;R2 [L1]&gt;</text>
<rect x="500.0" y="290.0" width="200" height="80" rx="10" class="region"  />
<text x="600.0" y="285.0" class="label" style="font-size: 10px;">R2</text>
<path d="M220.0,330.0 L210,330.0" class="arc" />
<path d="M980,330.0 L970.0,330.0" class="arc" />
<path d="M620.0,330.0 L670.0,330.0" class="arc" />
<path d="M220.0,140.0 L270.0,140.0" class="arc" />
<path d="M260,330.0 L470.0,330.0" class="arc" />
<path d="M520.0,330.0 L570.0,330.0" class="arc" />
<path d="M70.0,260.0 L65.0,260.0" class="arc" />
<path d="M585.0,400 Q500.0,400 500.0,300.0" class="arc" />
<path d="M720.0,330.0 L930,330.0" class="arc" />
<path d="M1125.0,260.0 L1120.0,260.0" class="arc" />
<path d="M700.0,310.0 Q700.0,400 615.0,400" class="arc" />
<path d="M115.0,260.0 L176.8420929314885,310.928782414167" class="arc" />
<path d="M1016.6410058867568,318.9059960754954 L1075.0,260.0" class="arc" />
<path d="M320.0,140.0 L370.0,140.0" class="arc" />
<path d="M419.71642339568257,143.35598696096724 L1075.0,260.0" class="arc" />
<path d="M115.0,260.0 L182.65947977658982,164.48073443304966" class="arc" />
<circle cx="1150" cy="260.0" r="20" class="place" />
<polygon points="1138,248.0 1162,260.0 1138,272.0" style="fill: black; stroke: black" />
<text x="1175" y="285.0" class="label" style="font-style: italic; font-size: 14px">R</text>
<circle cx="400" cy="140.0" r="20" class="place" />
<polygon points="388,128.0 412,140.0 388,152.0" style="fill: black; stroke: black" />
<circle cx="700.0" cy="330.0" r="20" class="place" />
<polygon points="688.0,318.0 712.0,330.0 688.0,342.0" style="fill: black; stroke: black" />
<circle cx="500.0" cy="330.0" r="20" class="place" />
<circle cx="1000" cy="330.0" r="20" class="place" />
<polygon points="988,318.0 1012,330.0 988,342.0" style="fill: black; stroke: black" />
<circle cx="200" cy="330.0" r="20" class="place" />
<polygon points="188,318.0 212,330.0 188,342.0" style="fill: none; stroke: black; stroke-width: 1.5" />
<circle cx="50" cy="260.0" r="20" class="place" />
<polygon points="38,248.0 62,260.0 38,272.0" style="fill: none; stroke: black; stroke-width: 1.5" />
<text x="75" y="285.0" class="label" style="font-style: italic; font-size: 14px">R</text>
<circle cx="200" cy="140.0" r="20" class="place" />
<rect x="560.0" y="305.0" width="80" height="50" rx="5" class="transition" />
<text x="600.0" y="323.0" class="label">R2</text>
<text x="600.0" y="337.0" class="label">d=1.5</text>
<polygon points="225,315.0 255,330.0 225,345.0" style="fill: #2E7D32; stroke: #2E7D32" />
<polygon points="945,315.0 975,330.0 945,345.0" style="fill: none; stroke: #2E7D32; stroke-width: 2" />
<text x="960" y="330.0" class="label">0.7</text>
<polygon points="80.0,245.0 110.0,260.0 80.0,275.0" style="fill: none; stroke: black; stroke-width: 2" />
<text x="95.0" y="260.0" class="label">+</text>
<polygon points="585.0,385 615.0,400 585.0,415" style="fill: none; stroke: #2E7D32; stroke-width: 2" />
<text x="600.0" y="400" class="label">0.3</text>
<polygon points="1090.0,245.0 1120.0,260.0 1090.0,275.0" style="fill: black; stroke: black" />
<text x="1105.0" y="260.0" class="label">+</text>
<rect x="260.0" y="115.0" width="80" height="50" rx="5" class="transition" />
<text x="300.0" y="133.0" class="label">R1</text>
<text x="300.0" y="147.0" class="label">d=2.0</text>
</svg>