<svg xmlns="http://www.w3.org/2000/svg" width="800" height="300" viewBox="0 0 800 300">
<style>
  .place { fill: white; stroke: black; stroke-width: 1.5; }
  .transition { fill: white; stroke: black; stroke-width: 1.5; }
  .region { fill: none; stroke: black; stroke-width: 2; rx: 10; }
  .arc { fill: none; stroke: black; stroke-width: 1; marker-end: url(#arrowhead); }
  .label { font-family: Arial; font-size: 12px; text-anchor: middle; dominant-baseline: middle; }
</style>
<defs>
  <marker id="arrowhead" markerWidth="10" markerHeight="7" refX="9" refY="3.5" orient="auto">
    <polygon points="0 0, 10 3.5, 0 7" fill="black" />
  </marker>
</defs>
<rect x="0" y="20" width="700" height="180" rx="10" style="fill: none; stroke: black; stroke-width: 2" />
<text x="20" y="45" class="label" style="font-size: 18px; font-style: italic">R</text>
<rect x="250" y="110" width="200" height="80" rx="10" class="region" />
<text x="350.0" y="105" class="label">R1</text>
<path d="M450,130 Q450,70 365.0,70" class="arc" />
<path d="M270.0,150.0 L320,150" class="arc" />
<path d="M170,150 L220.0,150.0" class="arc" />
<path d="M470.0,150.0 L520,150" class="arc" />
<path d="M570,150 L620.0,150.0" class="arc" />
<path d="M370,150 L420.0,150.0" class="arc" />
<path d="M335.0,70 Q250,70 250,120" class="arc" />
<path d="M70.0,150.0 L120,150" class="arc" />
<circle cx="450" cy="150" r="20" class="place" />
<polygon points="438,138 462,150 438,162" style="fill: black; stroke: black" />
<circle cx="650" cy="150" r="20" class="place" />
<polygon points="638,138 662,150 638,162" style="fill: black; stroke: black" />
<text x="675" y="175" class="label" style="font-style: italic; font-size: 14px">R</text>
<circle cx="50" cy="150" r="20" class="place" />
<polygon points="38,138 62,150 38,162" style="fill: none; stroke: black; stroke-width: 1.5" />
<text x="75" y="175" class="label" style="font-style: italic; font-size: 14px">R</text>
<circle cx="250" cy="150" r="20" class="place" />
<polygon points="238,138 262,150 238,162" style="fill: none; stroke: black; stroke-width: 1.5" />
<polygon points="335.0,55 365.0,70 335.0,85" style="fill: none; stroke: #2E7D32; stroke-width: 2" />
<text x="350.0" y="70" class="label">0.7</text>
<polygon points="535,135 565,150 535,165" style="fill: none; stroke: #2E7D32; stroke-width: 2" />
<text x="550" y="150" class="label">0.3</text>
<polygon points="135,135 165,150 135,165" style="fill: #2E7D32; stroke: #2E7D32" />
<rect x="310" y="124" width="80" height="52" rx="5" class="transition" />
<text x="350" y="136.0" class="label">R1</text>
<text x="350" y="150.0" class="label">d=2.0</text>
<text x="350" y="164.0" class="label">[0.5]</text>
</svg>