<svg xmlns="http://www.w3.org/2000/svg" width="800" height="200" viewBox="0 0 800 200">
<style>
  .place { fill: white; stroke: black; stroke-width: 1.5; }
  .transition { fill: white; stroke: black; stroke-width: 1.5; }
  .region { fill: none; stroke: black; stroke-width: 2; rx: 10; }
  .arc { fill: none; stroke: black; stroke-width: 1; marker-end: url(#arrowhead); }
  .label { font-family: Arial; font-size: 12px; text-anchor: middle; dominant-baseline: middle; }
</style>
<defs>
  <marker id="arrowhead" markerWidth="10" markerHeight="7" refX="9" refY="3.5" orient="auto">
    <polygon points="0 0, 10 3.5, 0 7" fill="black" />
  </marker>
</defs>
<rect x="0" y="50" width="500" height="100" rx="10" style="fill: none; stroke: black; stroke-width: 2" />
<text x="20" y="75" class="label" style="font-size: 18px; font-style: italic">R</text>
<rect x="50" y="60" width="200" height="80" rx="10" class="region" />
<text x="150.0" y="55" class="label">R1</text>
<rect x="250" y="60" width="200" height="80" rx="10" class="region" />
<text x="350.0" y="55" class="label">R2</text>
<path d="M370,100 L420.0,100.0" class="arc" />
<path d="M70.0,100.0 L120,100" class="arc" />
<path d="M170,100 L220.0,100.0" class="arc" />
<path d="M270.0,100.0 L320,100" class="arc" />
<circle cx="450" cy="100" r="20" class="place" />
<polygon points="438,88 462,100 438,112" style="fill: black; stroke: black" />
<text x="475" y="125" class="label" style="font-style: italic; font-size: 14px">R</text>
<circle cx="50" cy="100" r="20" class="place" />
<polygon points="38,88 62,100 38,112" style="fill: none; stroke: black; stroke-width: 1.5" />
<text x="75" y="125" class="label" style="font-style: italic; font-size: 14px">R</text>
<circle cx="250" cy="100" r="20" class="place" />
<polygon points="238,88 262,100 238,112" style="fill: none; stroke: black; stroke-width: 1.5" />
<rect x="105" y="74" width="90" height="52" rx="5" class="transition" />
<text x="150" y="86.0" class="label">Task A</text>
<text x="150" y="100.0" class="label">d=5.0</text>
<text x="150" y="114.0" class="label">[1.0,-0.5]</text>
<rect x="309" y="74" width="82" height="52" rx="5" class="transition" />
<text x="350" y="86.0" class="label">Task B</text>
<text x="350" y="100.0" class="label">d=3.0</text>
<text x="350" y="114.0" class="label">[0.2,0.8]</text>
</svg>