<svg xmlns="http://www.w3.org/2000/svg" width="1200" height="400" viewBox="0 0 1200 400">
<style>
  .place { fill: white; stroke: black; stroke-width: 1.5; }
  .transition { fill: white; stroke: black; stroke-width: 1.5; }
  .region { fill: none; stroke: black; stroke-width: 2; rx: 10; }
  .arc { fill: none; stroke: black; stroke-width: 1; marker-end: url(#arrowhead); }
  .label { font-family: Arial; font-size: 12px; text-anchor: middle; dominant-baseline: middle; }
</style>
<defs>
  <marker id="arrowhead" markerWidth="10" markerHeight="7" refX="9" refY="3.5" orient="auto">
    <polygon points="0 0, 10 3.5, 0 7" fill="black" />
  </marker>
</defs>
<rect x="100" y="150.0" width="200" height="80" rx="10" class="region"  />
<text x="200.0" y="145.0" class="label" style="font-size: 10px;">R1</text>
<rect x="400" y="100.0" width="500" height="180" rx="10" class="region"  />
<text x="650.0" y="95.0" class="label" style="font-size: 10px;">&lt;R2 [L1]&gt;</text>
<rect x="550.0" y="150.0" width="200" height="80" rx="10" class="region"  />
<text x="650.0" y="145.0" class="label" style="font-size: 10px;">R2</text>
<path d="M120.0,190.0 L170.0,190.0" class="arc" />
<path d="M220.0,190.0 L270.0,190.0" class="arc" />
<path d="M635.0,260.0 Q550.0,260.0 550.0,160.0" class="arc" />
<path d="M750.0,170.0 Q750.0,260.0 665.0,260.0" class="arc" />
<path d="M770.0,190.0 L830,190.0" class="arc" />
<path d="M670.0,190.0 L720.0,190.0" class="arc" />
<path d="M430,190.0 L520.0,190.0" class="arc" />
<path d="M570.0,190.0 L620.0,190.0" class="arc" />
<path d="M880,190.0 L870.0,190.0" class="arc" />
<path d="M320.0,190.0 L380,190.0" class="arc" />
<circle cx="900" cy="190.0" r="20" class="place" />
<polygon points="888,178.0 912,190.0 888,202.0" style="fill: black; stroke: black" />
<text x="925" y="215.0" class="label" style="font-style: italic; font-size: 14px">R</text>
<circle cx="550.0" cy="190.0" r="20" class="place" />
<polygon points="538.0,178.0 562.0,190.0 538.0,202.0" style="fill: none; stroke: black; stroke-width: 1.5" />
<circle cx="750.0" cy="190.0" r="20" class="place" />
<polygon points="738.0,178.0 762.0,190.0 738.0,202.0" style="fill: black; stroke: black" />
<circle cx="300" cy="190.0" r="20" class="place" />
<polygon points="288,178.0 312,190.0 288,202.0" style="fill: none; stroke: black; stroke-width: 1.5" />
<circle cx="100" cy="190.0" r="20" class="place" />
<polygon points="88,178.0 112,190.0 88,202.0" style="fill: none; stroke: black; stroke-width: 1.5" />
<text x="125" y="215.0" class="label" style="font-style: italic; font-size: 14px">R</text>
<polygon points="635.0,245.0 665.0,260.0 635.0,275.0" style="fill: none; stroke: #2E7D32; stroke-width: 2" />
<text x="650.0" y="260.0" class="label">0.7</text>
<polygon points="395,175.0 425,190.0 395,205.0" style="fill: #2E7D32; stroke: #2E7D32" />
<polygon points="845,175.0 875,190.0 845,205.0" style="fill: none; stroke: #2E7D32; stroke-width: 2" />
<text x="860" y="190.0" class="label">0.3</text>
<rect x="160.0" y="164.0" width="80" height="52" rx="5" class="transition" />
<text x="200.0" y="176.0" class="label">R1</text>
<text x="200.0" y="190.0" class="label">d=2.0</text>
<text x="200.0" y="204.0" class="label">[0.5]</text>
<rect x="610.0" y="164.0" width="80" height="52" rx="5" class="transition" />
<text x="650.0" y="176.0" class="label">R2</text>
<text x="650.0" y="190.0" class="label">d=3.0</text>
<text x="650.0" y="204.0" class="label">[1.0]</text>
</svg>