<svg xmlns="http://www.w3.org/2000/svg" width="1400" height="790" viewBox="0 0 1400 790">
<style>
  .place { fill: white; stroke: black; stroke-width: 1.5; }
  .transition { fill: white; stroke: black; stroke-width: 1.5; }
  .region { fill: none; stroke: black; stroke-width: 2; rx: 10; }
  .arc { fill: none; stroke: black; stroke-width: 1; marker-end: url(#arrowhead); }
  .label { font-family: Arial; font-size: 12px; text-anchor: middle; dominant-baseline: middle; }
</style>
<defs>
  <marker id="arrowhead" markerWidth="10" markerHeight="7" refX="9" refY="3.5" orient="auto">
    <polygon points="0 0, 10 3.5, 0 7" fill="black" />
  </marker>
</defs>
<rect x="100" y="390.0" width="200" height="80" rx="10" class="region"  />
<text x="200.0" y="385.0" class="label" style="font-size: 10px;">R1</text>
<rect x="300" y="100.0" width="800" height="660" rx="10" class="region"  />
<text x="700.0" y="95.0" class="label" style="font-size: 10px;">((R2 /[C1] R3) || &lt;R4 [L1]&gt;)</text>
<rect x="450" y="150.0" width="500" height="320" rx="10" class="region"  />
<text x="700.0" y="145.0" class="label" style="font-size: 10px;">R2 /[C1] R3</text>
<rect x="600" y="200.0" width="200" height="80" rx="10" class="region"  />
<text x="700.0" y="195.0" class="label" style="font-size: 10px;">R2</text>
<rect x="600" y="340.0" width="200" height="80" rx="10" class="region"  />
<text x="700.0" y="335.0" class="label" style="font-size: 10px;">R3</text>
<rect x="450" y="530.0" width="500" height="180" rx="10" class="region"  />
<text x="700.0" y="525.0" class="label" style="font-size: 10px;">&lt;R4 [L1]&gt;</text>
<rect x="600.0" y="580.0" width="200" height="80" rx="10" class="region"  />
<text x="700.0" y="575.0" class="label" style="font-size: 10px;">R4</text>
<rect x="1100" y="390.0" width="200" height="80" rx="10" class="region"  />
<text x="1200.0" y="385.0" class="label" style="font-size: 10px;">R5</text>
<path d="M620.0,380.0 L670.0,380.0" class="arc" />
<path d="M120.0,430.0 L170.0,430.0" class="arc" />
<path d="M515.0,380.0 L570.0,380.0" class="arc" />
<path d="M515.0,240.0 L570.0,240.0" class="arc" />
<path d="M925.0,240.0 L939.9099080900553,281.7477426521549" class="arc" />
<path d="M930,620.0 L920.0,620.0" class="arc" />
<path d="M820.0,380.0 L875.0,380.0" class="arc" />
<path d="M470.0,620.0 L460,620.0" class="arc" />
<path d="M460.81515182627,293.1764304924689 L465.0,240.0" class="arc" />
<path d="M959.6737222338024,602.4951692912146 L1025.0,430.0" class="arc" />
<path d="M1075.0,430.0 L1070.0,430.0" class="arc" />
<path d="M685.0,690.0 Q600.0,690.0 600.0,590.0" class="arc" />
<path d="M220.0,430.0 L270.0,430.0" class="arc" />
<path d="M320.0,430.0 L315.0,430.0" class="arc" />
<path d="M1220.0,430.0 L1270.0,430.0" class="arc" />
<path d="M1120.0,430.0 L1170.0,430.0" class="arc" />
<path d="M510,620.0 L570.0,620.0" class="arc" />
<path d="M365.0,430.0 L437.7490181982524,592.6154524431524" class="arc" />
<path d="M365.0,430.0 L432.6594797765898,334.48073443304963" class="arc" />
<path d="M820.0,620.0 L880,620.0" class="arc" />
<path d="M720.0,620.0 L770.0,620.0" class="arc" />
<path d="M720.0,240.0 L770.0,240.0" class="arc" />
<path d="M925.0,380.0 L939.9099080900553,338.2522573478451" class="arc" />
<path d="M460.81515182627,326.8235695075311 L465.0,380.0" class="arc" />
<path d="M820.0,240.0 L875.0,240.0" class="arc" />
<path d="M720.0,380.0 L770.0,380.0" class="arc" />
<path d="M620.0,240.0 L670.0,240.0" class="arc" />
<path d="M620.0,620.0 L670.0,620.0" class="arc" />
<path d="M800.0,600.0 Q800.0,690.0 715.0,690.0" class="arc" />
<path d="M963.1700921573704,325.05153389413755 L1025.0,430.0" class="arc" />
<circle cx="1300" cy="430.0" r="20" class="place" />
<polygon points="1288,418.0 1312,430.0 1288,442.0" style="fill: black; stroke: black" />
<text x="1325" y="455.0" class="label" style="font-style: italic; font-size: 14px">R</text>
<circle cx="600" cy="240.0" r="20" class="place" />
<circle cx="800" cy="380.0" r="20" class="place" />
<circle cx="600.0" cy="620.0" r="20" class="place" />
<polygon points="588.0,608.0 612.0,620.0 588.0,632.0" style="fill: none; stroke: black; stroke-width: 1.5" />
<circle cx="950" cy="310.0" r="20" class="place" />
<polygon points="938,298.0 962,310.0 938,322.0" style="fill: black; stroke: black" />
<circle cx="1100" cy="430.0" r="20" class="place" />
<polygon points="1088,418.0 1112,430.0 1088,442.0" style="fill: none; stroke: black; stroke-width: 1.5" />
<circle cx="450" cy="310.0" r="20" class="place" />
<polygon points="438,298.0 462,310.0 438,322.0" style="fill: none; stroke: black; stroke-width: 1.5" />
<circle cx="800" cy="240.0" r="20" class="place" />
<circle cx="600" cy="380.0" r="20" class="place" />
<circle cx="950" cy="620.0" r="20" class="place" />
<polygon points="938,608.0 962,620.0 938,632.0" style="fill: black; stroke: black" />
<circle cx="300" cy="430.0" r="20" class="place" />
<polygon points="288,418.0 312,430.0 288,442.0" style="fill: none; stroke: black; stroke-width: 1.5" />
<circle cx="100" cy="430.0" r="20" class="place" />
<polygon points="88,418.0 112,430.0 88,442.0" style="fill: none; stroke: black; stroke-width: 1.5" />
<text x="125" y="455.0" class="label" style="font-style: italic; font-size: 14px">R</text>
<circle cx="800.0" cy="620.0" r="20" class="place" />
<polygon points="788.0,608.0 812.0,620.0 788.0,632.0" style="fill: black; stroke: black" />
<circle cx="450" cy="620.0" r="20" class="place" />
<polygon points="438,608.0 462,620.0 438,632.0" style="fill: none; stroke: black; stroke-width: 1.5" />
<polygon points="480.0,225.0 510.0,240.0 480.0,255.0" style="fill: none; stroke: #E65100; stroke-width: 2" />
<polygon points="480.0,365.0 510.0,380.0 480.0,395.0" style="fill: none; stroke: #E65100; stroke-width: 2" />
<polygon points="685.0,675.0 715.0,690.0 685.0,705.0" style="fill: none; stroke: #2E7D32; stroke-width: 2" />
<text x="700.0" y="690.0" class="label">0.3</text>
<polygon points="890.0,365.0 920.0,380.0 890.0,395.0" style="fill: #E65100; stroke: #E65100" />
<rect x="660.0" y="595.0" width="80" height="50" rx="5" class="transition" />
<text x="700.0" y="613.0" class="label">R4</text>
<text x="700.0" y="627.0" class="label">d=1.5</text>
<polygon points="895,605.0 925,620.0 895,635.0" class="transition" />
<text x="910" y="620.0" class="label">0.7</text>
<rect x="1160.0" y="405.0" width="80" height="50" rx="5" class="transition" />
<text x="1200.0" y="423.0" class="label">R5</text>
<text x="1200.0" y="437.0" class="label">d=1.0</text>
<polygon points="330.0,415.0 360.0,430.0 330.0,445.0" style="fill: none; stroke: black; stroke-width: 2" />
<text x="345.0" y="430.0" class="label">+</text>
<rect x="160.0" y="404.0" width="80" height="52" rx="5" class="transition" />
<text x="200.0" y="416.0" class="label">R1</text>
<text x="200.0" y="430.0" class="label">d=2.0</text>
<text x="200.0" y="444.0" class="label">[0.5]</text>
<polygon points="890.0,225.0 920.0,240.0 890.0,255.0" style="fill: #E65100; stroke: #E65100" />
<polygon points="1040.0,415.0 1070.0,430.0 1040.0,445.0" style="fill: black; stroke: black" />
<text x="1055.0" y="430.0" class="label">+</text>
<rect x="660.0" y="215.0" width="80" height="50" rx="5" class="transition" />
<text x="700.0" y="233.0" class="label">R2</text>
<text x="700.0" y="247.0" class="label">d=3.0</text>
<rect x="660.0" y="355.0" width="80" height="50" rx="5" class="transition" />
<text x="700.0" y="373.0" class="label">R3</text>
<text x="700.0" y="387.0" class="label">d=2.5</text>
<polygon points="475,605.0 505,620.0 475,635.0" style="fill: #2E7D32; stroke: #2E7D32" />
</svg>